# xmcd
#
# Track frame offsets:
# 150
# 27348
# 42645
# 60933
# 69584
# 83742
# 95448
# 115610
# 130756
# 152729
# 177287
# 199142
# 214766
# 241393
#
# Disc length: 3494 seconds
#
#
# Revision: 0
# Processed by: cddbd v1.5.1PL0 Copyright (c) Steve Scherf et al.
# Submitted via: FreeRIP 2.30 
#
DISCID=ba0da40e
DTITLE=mike jones - swishahouse
DYEAR=2004
DGENRE=Bass
TTITLE0=entry
TTITLE1=who
TTITLE2=who is
TTITLE3=waz up
TTITLE4=knoking niggaz
TTITLE5=oh oh
TTITLE6=flou flou
TTITLE7=lpi
TTITLE8=monster
TTITLE9=bia bia
TTITLE10=klo
TTITLE11=a
TTITLE12=gi gigi
TTITLE13=holipack
EXTD=mike jones coming soon,the best of this season,\n
EXTT0=
EXTT1=
EXTT2=
EXTT3=
EXTT4=
EXTT5=
EXTT6=
EXTT7=
EXTT8=
EXTT9=
EXTT10=
EXTT11=
EXTT12=
EXTT13=
PLAYORDER=
